<svg width="271" height="100" viewBox="0 0 271 100" fill="none" xmlns="http://www.w3.org/2000/svg">
<path fill-rule="evenodd" clip-rule="evenodd" d="M105.874 0H112.203V1.09326V49.9448C112.203 51.0956 112.318 52.1313 113.584 52.8793H105.586C107.097 52.1742 107.065 51.0281 107.033 49.9043L107.033 49.9038C107.029 49.7439 107.025 49.5845 107.025 49.4269V2.81946C107.025 1.7262 106.967 0.690481 105.816 0H105.874ZM26.2383 20.0237C26.0034 20.0451 25.7659 20.0611 25.5276 20.0773C23.8394 20.1915 22.1114 20.3084 21.0021 22.3253C20.8295 20.4265 20.6569 18.7578 20.4267 17.1467C20.1966 15.4781 19.5636 13.9245 18.643 12.6011C16.1112 8.97603 11.508 8.74587 8.80363 12.1983C6.38695 15.3054 5.86909 18.8729 6.90481 22.613C7.59529 25.0297 9.66673 26.4107 11.7957 27.5039C13.641 28.4002 15.6313 29.1516 17.5894 29.8908L18.1251 30.0932C21.0021 31.1865 23.764 32.2798 26.2383 34.1786C31.1867 37.9762 31.0716 46.7223 25.145 50.3473C21.4049 52.5914 17.3771 53.2819 13.1191 52.8791C10.0695 52.5914 7.13497 51.7283 4.60321 49.9446C1.84128 47.9307 0.17262 45.3414 0 41.9465C0 41.4334 0.053612 40.9025 0.11104 40.3338C0.156659 39.882 0.204687 39.4063 0.23016 38.8969C1.61112 40.7381 3.4524 41.0834 5.40877 41.1985C5.46108 41.5647 5.50811 41.9256 5.55466 42.2828C5.66171 43.1043 5.76622 43.9064 5.92663 44.7084C6.96235 49.3692 10.76 52.3612 15.3057 52.3037C21.2323 52.1886 25.4327 46.9525 23.9942 41.3711C23.649 39.9326 22.7859 38.8393 21.6926 37.8611C19.6311 36.0573 17.1542 35.0383 14.6753 34.0184C14.3865 33.8996 14.0978 33.7808 13.8096 33.6607C11.6806 32.7976 9.60919 31.9345 7.53775 30.9563C6.50203 30.4385 5.52385 29.6905 4.60321 28.9424C1.1508 26.123 0.2877 22.2102 1.20834 17.8947C2.12898 13.5792 5.06353 10.9324 9.26395 9.72405C13.6945 8.40063 18.01 8.91849 21.9228 11.5078C24.7422 13.4066 26.1807 16.111 26.3534 19.5059V19.9662L26.2383 20.0237ZM125.208 48.2187V48.3914L125.208 48.3913C125.251 48.3338 125.294 48.2763 125.323 48.2187H125.208ZM127.337 50.1751C126.627 49.6292 125.917 49.1351 125.208 48.6437V49.1969V69.2209C125.208 70.2566 125.265 71.2348 126.301 71.9253H118.706C119.914 71.2348 120.029 70.2566 120.029 69.1058V21.9229C120.029 20.8297 119.971 19.7939 118.763 19.161C121.698 18.5856 124.229 20.0241 125.323 22.786C125.611 22.5938 125.895 22.3971 126.178 22.2009L126.178 22.2007C126.912 21.6923 127.641 21.1873 128.43 20.7721C135.392 16.9169 147.936 18.6431 150.986 30.8416C152.194 35.5024 152.021 40.1631 149.892 44.5937C147.13 50.2902 141.549 53.3973 135.22 52.937C132.343 52.7069 129.638 51.9588 127.337 50.1751ZM125.208 39.4726C125.208 40.0268 125.214 40.5872 125.22 41.1498V41.1504V41.1505V41.1506V41.1507V41.1509V41.151V41.1511V41.1512V41.1513V41.1514V41.1515C125.233 42.2826 125.246 43.4222 125.208 44.5362C125.15 46.435 125.841 47.8735 127.222 49.0818C130.041 51.441 133.321 52.4192 136.946 51.7287C141.204 50.9807 143.678 48.1612 145.117 44.306C146.728 39.933 146.728 35.4448 145.922 30.9567C145.404 28.0797 144.368 25.4329 142.585 23.1313C138.845 18.413 132.4 18.5281 128.833 23.2464C127.452 25.0876 126.589 27.1591 126.013 29.4031C125.241 32.3891 125.252 35.4211 125.263 38.458C125.264 38.8154 125.265 39.1728 125.265 39.5302L125.208 39.4726ZM74.8025 18.9882H68.4731L68.3581 19.1033C69.2787 19.8513 69.5664 20.7144 69.5664 21.8077V36.0776C69.5664 37.6312 69.6239 39.1848 69.9116 40.6808C70.9474 46.1471 74.4573 52.0738 81.995 52.9369C86.5983 53.4547 90.7411 52.4765 93.6757 48.4487H93.8483C94.0785 51.5559 97.3583 53.8575 100.293 52.9369C99.3146 52.3615 99.0844 51.4408 99.0844 50.4051V20.3116V19.2184H92.5824C93.7332 19.8513 93.9634 20.6569 93.9634 21.7501V44.7086C94.0209 46.2622 93.5031 47.5856 92.4673 48.7364C88.7848 52.9369 81.0169 53.5123 77.3918 47.413C75.493 44.2483 74.8025 40.8535 74.8025 37.286V19.9664V18.9882ZM173.829 18.9882H180.158V20.0815V36.9983C180.158 40.163 180.733 43.2701 182.114 46.2047C184.934 52.1888 191.954 53.7424 196.96 49.542C198.513 48.2186 199.376 46.6075 199.376 44.4785C199.338 39.3787 199.351 34.3045 199.364 29.2218L199.364 29.2101C199.37 26.6694 199.376 24.1267 199.376 21.5775C199.376 20.5418 199.146 19.7362 197.995 19.1033H204.555V20.2541V49.7722C204.555 50.9805 204.555 52.0738 205.821 52.8218C202.196 53.2821 199.549 51.4408 199.261 48.161C199.075 48.3785 198.922 48.596 198.775 48.8044L198.775 48.8046L198.775 48.805C198.65 48.9824 198.53 49.1532 198.398 49.3118C196.269 51.671 193.507 52.7067 190.458 52.8793C181.712 53.3972 176.706 47.5856 175.382 40.5082C175.094 39.0122 175.037 37.5161 175.037 36.0201V21.7501C175.037 20.5993 174.807 19.6787 173.829 18.9882ZM246.674 44.5364C245.186 41.6185 244.779 38.4729 244.775 35.0998C246.674 37.8617 247.479 38.7248 249.493 39.6455C254.614 41.8895 259.735 41.8895 264.741 39.4729C271.819 36.0205 271.934 27.1593 266.985 22.7287C264.281 20.3696 261.116 19.2188 257.606 18.9886C252.83 18.6434 248.4 19.7942 244.717 23.0739C238.676 28.3676 238.215 38.6673 241.783 44.5364C245.063 50.0027 250.011 52.7646 256.283 53.2249C260.368 53.5126 264.223 52.4769 267.388 49.715C267.971 49.2045 268.486 48.6016 269.004 47.994L269.004 47.9933C269.303 47.6424 269.604 47.2901 269.92 46.9531C269.845 46.9159 269.795 46.8547 269.738 46.7851C269.706 46.7469 269.673 46.7061 269.632 46.6654C269.57 46.707 269.492 46.7411 269.413 46.7758C269.274 46.8371 269.13 46.9004 269.057 47.0106C267.503 49.0245 265.374 50.2904 262.957 51.0384C256.398 53.1674 249.723 50.463 246.674 44.5364ZM256.225 39.5879C255.765 39.6455 255.305 39.6455 254.902 39.6455L254.959 39.703C252.485 39.6455 250.299 39.1276 248.285 37.8617C245.753 36.1931 244.717 33.6038 245.235 30.6692C245.753 27.7347 246.789 25.0303 248.86 22.8438C251.449 20.0819 254.672 18.9311 258.412 19.9668C262.209 21.0025 264.281 23.822 265.144 27.5045C265.892 30.7843 265.604 33.949 263.13 36.5383C261.231 38.4371 258.872 39.3002 256.225 39.5879ZM212.323 50.2899C212.323 51.3257 212.093 52.1888 210.942 52.8792H218.422C218.334 52.6852 218.219 52.4857 218.101 52.2825C217.836 51.8229 217.559 51.3441 217.559 50.8653V26.641C217.559 26.2382 217.617 25.8354 217.674 25.4902C218.365 22.5556 221.357 20.1965 224.579 20.0814C227.571 19.9663 229.815 21.7501 230.736 24.9148C230.914 25.6276 231.026 26.3405 231.14 27.0671L231.14 27.0673L231.14 27.0675V27.0676C231.21 27.5137 231.281 27.9651 231.369 28.4247H236.317C236.72 24.9148 234.533 21.1171 231.196 19.6211C228.779 18.5278 226.248 18.3552 223.716 18.9881C221.126 19.6211 219.055 21.002 217.501 23.3036V19.1032H210.884C212.093 19.7362 212.323 20.6568 212.323 21.7501V50.2899ZM64.2733 46.4925C61.8566 50.06 58.4617 52.0164 54.3189 52.8219C47.5867 54.0878 40.2215 50.9231 36.4239 45.2266C32.3961 39.3 32.8564 29.0579 38.2652 23.6491C40.8545 21.0598 43.9041 19.6213 47.4716 19.1034C51.6145 18.4705 55.5847 18.9884 59.2098 21.1749C62.4896 23.1888 64.5035 26.0083 64.6185 29.9785V30.2662C64.6185 30.2662 64.6185 30.3813 64.561 30.4964C62.8348 30.6115 61.1661 30.9567 59.7852 32.2801C59.7423 31.7233 59.7234 31.1744 59.7047 30.6305V30.6304V30.6304V30.6303V30.6303V30.6302C59.6731 29.713 59.6419 28.81 59.4975 27.9071C58.7494 23.3614 55.4121 20.1392 50.8665 19.6789C47.6442 19.3911 45.0549 20.7146 42.9259 23.0737C40.7969 25.4904 39.7612 28.3674 39.3584 31.5321C38.8406 35.2722 38.8981 39.0123 40.1065 42.6373C43.9616 53.9727 57.2534 53.5124 62.6622 47.8159C63.1225 47.2981 63.6404 46.7802 64.1582 46.3199C64.187 46.3487 64.2158 46.3918 64.2445 46.435C64.2733 46.4781 64.3021 46.5213 64.3308 46.5501L64.2733 46.4925ZM171.641 53.1481L171.756 53.167H171.641V53.1481ZM171.641 52.7642V53.1481C171.454 53.1177 171.264 53.0888 171.074 53.0597C170.248 52.9335 169.402 52.8043 168.592 52.5341C163.758 50.923 160.881 47.413 159.097 42.8098C158.234 40.5658 157.947 38.1491 157.947 35.7899V20.5993V19.4485H155.818C155.242 19.4485 155.07 19.2759 155.242 18.5854H157.659C159.845 18.5854 161.399 17.6073 162.377 15.766C163.413 13.9247 163.643 11.8533 163.816 9.78181C163.816 9.60919 163.816 9.37903 163.988 9.20641V18.5854H168.592C168.822 19.2184 168.707 19.4485 168.074 19.4485H164.046C164.046 19.5719 164.029 19.6787 164.014 19.7779C164.001 19.8637 163.988 19.9438 163.988 20.0239C163.988 21.9799 163.982 23.9295 163.976 25.877L163.976 25.8845C163.963 29.778 163.95 33.6631 163.988 37.5737C164.046 41.3713 164.621 45.169 166.463 48.6214C167.268 50.2325 168.304 51.671 170.088 52.3615C170.605 52.5341 171.123 52.6492 171.641 52.7642ZM149.374 92.2371C149.442 92.3045 149.509 92.3522 149.565 92.3916C149.605 92.4196 149.638 92.4434 149.662 92.4672C151.388 93.503 152.021 94.7688 151.676 96.5526C151.388 98.1062 150.122 99.4871 148.339 99.6597C147.232 99.7742 146.101 99.7369 144.944 99.6987L144.943 99.6987C144.355 99.6793 143.761 99.6597 143.16 99.6597V85.2172C143.716 85.2172 144.279 85.2044 144.842 85.1916C145.967 85.166 147.092 85.1405 148.166 85.2172C149.72 85.3898 150.928 86.368 151.273 87.9791C151.676 89.8204 150.986 91.2014 149.317 92.122L149.374 92.2371ZM144.829 93.2153V98.3363H144.829C145.865 98.3363 146.9 98.3363 147.878 98.1637C149.317 97.9911 150.122 96.9554 150.122 95.6319C150.122 94.3661 149.144 93.3303 147.763 93.2153C147.111 93.1385 146.459 93.1641 145.807 93.1897C145.481 93.2025 145.155 93.2153 144.829 93.2153ZM144.829 91.6041H147.476C148.857 91.4891 149.777 90.4533 149.777 89.1299C149.777 87.864 148.972 86.9434 147.591 86.7708C146.983 86.6948 146.401 86.7191 145.794 86.7444C145.481 86.7575 145.162 86.7708 144.829 86.7708V91.6041ZM130.376 99.6946C128.193 94.6961 126.009 89.6975 123.769 84.5841L123.711 84.5266C121.467 89.7052 119.281 94.7112 117.094 99.7172C118.206 99.8323 118.955 99.4487 119.338 98.5664C119.484 98.2392 119.629 97.9005 119.776 97.5575L119.776 97.5573C120.095 96.8149 120.422 96.0526 120.777 95.3441C120.892 95.0564 121.294 94.7687 121.582 94.7687H125.955C126.243 94.8263 126.646 95.0564 126.761 95.3441C127.161 96.1891 127.527 97.0684 127.885 97.9289L127.885 97.929L127.885 97.9291C127.99 98.1819 128.095 98.4332 128.199 98.6814L128.223 98.7363C128.775 100.006 128.797 100.058 130.386 99.7172L130.376 99.6946ZM124.952 91.133C125.248 91.8165 125.544 92.5 125.84 93.2151H121.697C122 92.5077 122.293 91.8114 122.588 91.1067C122.966 90.2064 123.349 89.2925 123.769 88.3242C124.163 89.3106 124.558 90.2218 124.952 91.133ZM164.508 96.7824L164.556 96.8115C164.533 96.8881 164.52 96.9647 164.508 97.0413C164.493 97.1276 164.479 97.2139 164.45 97.3002C164.047 98.1633 164.393 98.7387 165.198 99.0264C165.417 99.1086 165.636 99.1973 165.856 99.2862C166.56 99.5712 167.272 99.8594 168.018 99.9471C170.377 100.292 172.506 98.9113 172.966 96.8974C173.542 94.5383 172.391 92.5819 169.974 91.7188C169.817 91.6665 169.66 91.6195 169.505 91.5729C169.148 91.4659 168.799 91.3614 168.478 91.201C167.96 90.9708 167.5 90.7407 167.097 90.3954C165.774 89.2446 166.234 87.1156 167.903 86.5402C169.053 86.195 170.089 86.5402 171.125 87.0581C171.363 87.217 171.602 87.3485 171.859 87.4904C171.974 87.5541 172.093 87.6198 172.218 87.691C172.242 87.5705 172.256 87.4702 172.269 87.3816C172.286 87.2587 172.3 87.1584 172.333 87.0581C172.736 86.195 172.333 85.7347 171.528 85.5045C171.308 85.4417 171.088 85.3702 170.867 85.2984C170.278 85.1073 169.681 84.9134 169.053 84.8716C166.464 84.6414 164.45 86.6553 164.68 89.1871C164.795 91.0859 166.061 92.1792 167.73 92.8121C168.001 92.9207 168.273 93.0179 168.543 93.1145C169.13 93.3249 169.71 93.5323 170.262 93.8478C171.125 94.3657 171.47 95.2288 171.355 96.207C171.24 97.2427 170.664 98.1058 169.686 98.2784C168.823 98.451 167.845 98.3935 167.039 98.1633C166.37 97.9401 165.735 97.5437 165.081 97.1354L165.081 97.1353L165.08 97.135C164.907 97.027 164.733 96.9182 164.556 96.8115C164.559 96.8018 164.562 96.7921 164.565 96.7824H164.508ZM104.954 99.7749C105.069 99.3721 105.184 98.9118 105.299 98.2789H105.241H98.7969V85.0447C97.8439 85.1936 97.4612 85.1883 97.3138 85.372C97.1763 85.5432 97.2433 85.8785 97.2433 86.6558V98.6817V99.7749H104.954Z" fill="currentColor"/>
</svg>
